<svg width="25" height="25" viewBox="0 0 25 25" fill="none" xmlns="http://www.w3.org/2000/svg">
<path d="M12.5 24C18.8513 24 24 18.8513 24 12.5C24 6.14873 18.8513 1 12.5 1C6.14873 1 1 6.14873 1 12.5C1 18.8513 6.14873 24 12.5 24Z" stroke="white"/>
<path d="M12.5 14.4826C15.3471 14.4826 17.6552 12.3521 17.6552 9.72395C17.6552 7.09584 15.3471 4.96533 12.5 4.96533C9.6529 4.96533 7.34485 7.09584 7.34485 9.72395C7.34485 12.3521 9.6529 14.4826 12.5 14.4826Z" stroke="white"/>
<path d="M4.17242 20.0346C4.78326 18.4105 5.91177 17.0048 7.40291 16.0107C8.89405 15.0166 10.6746 14.4829 12.5 14.4829C14.3254 14.4829 16.106 15.0166 17.5971 16.0107C19.0882 17.0048 20.2168 18.4105 20.8276 20.0346" stroke="white"/>
</svg>
